<?xml version="1.0" encoding="UTF-8"?><!DOCTYPE svg PUBLIC "-//W3C//DTD SVG 1.1//EN" "http://www.w3.org/Graphics/SVG/1.1/DTD/svg11.dtd"><svg xmlns="http://www.w3.org/2000/svg" xmlns:xlink="http://www.w3.org/1999/xlink"><defs><clipPath id="a"><path d="M0 512h512V0H0z"/></clipPath></defs><symbol id="icon-check-mark" viewBox="0 0 24 24"><path d="M20 12.194V22H0V2h18.272l-1.951 2H2v16h16v-5.768l2-2.038zm.904-10.027L11.5 11.806 7.095 7.63 4 10.727 11.5 18 24 5.263l-3.096-3.096z"/></symbol><symbol id="icon-email" viewBox="0 0 24 24"><path d="M0 3v18h24V3H0zm6.623 7.929L2 16.641V7.183l4.623 3.746zM2.482 5h19.035L12 12.713 2.482 5zm5.694 7.188L12 15.287l3.83-3.104L21.442 19H2.663l5.513-6.812zm9.208-1.264L22 7.183v9.348l-4.616-5.607z"/></symbol><symbol id="icon-facebook" viewBox="0 0 24 24"><path d="M22.675 0H1.325C.593 0 0 .593 0 1.325v21.351C0 23.407.593 24 1.325 24H12.82v-9.294H9.692v-3.622h3.128V8.413c0-3.1 1.893-4.788 4.659-4.788 1.325 0 2.463.099 2.795.143v3.24l-1.918.001c-1.504 0-1.795.715-1.795 1.763v2.313h3.587l-.467 3.622h-3.12V24h6.116c.73 0 1.323-.593 1.323-1.325V1.325C24 .593 23.407 0 22.675 0z"/></symbol><symbol id="icon-map" viewBox="0 0 24 24"><path d="M12 0C8.852 0 6 2.553 6 5.702c0 4.682 4.783 5.177 6 12.298 1.217-7.121 6-7.616 6-12.298C18 2.553 15.149 0 12 0zm0 8a2 2 0 1 1-.001-3.999A2 2 0 0 1 12 8zm12 16l-6.707-2.427L12 24l-5.581-2.427L0 24l4-9 3.96-1.584c.38.516.741 1.08 1.061 1.729l-3.523 1.41-1.725 3.88 2.672-1.01 1.506-2.687-.635 3.044 4.189 1.789L12 19.55l.465 2.024 4.15-1.89-.618-3.033 1.572 2.896 2.732.989-1.739-3.978-3.581-1.415c.319-.65.681-1.215 1.062-1.731L20.064 15 24 24z"/></symbol><symbol id="icon-phone" viewBox="0 0 24 24"><path d="M20 22.621l-3.521-6.795a618.8 618.8 0 0 1-2.064 1.011c-2.24 1.086-6.799-7.82-4.609-8.994l2.083-1.026L8.396 0 6.29 1.039c-7.202 3.755 4.233 25.982 11.6 22.615.121-.055 2.102-1.029 2.11-1.033z"/></symbol><symbol id="logo" viewBox="0 0 320 172"><path d="M36.89 109.116l-.5-.186-.735-.44-2.002-1.557-.46-.404-1.396-1.432-.294-.364-.126-.26.094-.227.249-.34 1.451-1.534.4-.513.374-.543.347-.51.555-.688.306-.291.326-.022.277.091.37.276 1.545 1.206.462.407 1.411 1.293.412.463.506.7.253.528.088.537-.046.572-.177.61-.264.534-.372.538-.403.516-.434.436-.52.36-.58.255-.593.092zm1.793 6.785l.547.02.866-.057.538-.087.564-.118.587-.146.638-.205.581-.255.553-.279.523-.36.514-.413.489-.438.433-.437.405-.46.5-.684.377-.487.319-.536.26-.587.18-.609.154-.58.133-.852.07-.604.104-.928.014-.6-.034-.54-.088-.538-.219-.855-.171-.56-.255-.583-.309-.577-.279-.553-.306-.522-.453-.705-.355-.467-.465-.457-1.095-.963-1.798-1.789-.461-.405-2.06-1.605-3.324-3.128-1.245-1.198-.457-.35-.257-.174-.422-.217-.375.08-.416.295-.18.147-.41.408-.777 1.002-.406.46-1.337 1.58-.405.463-1.4 1.474-.404.462-1.456 1.477-.405.462-1.277 1.63-.407.462-1.456 1.478-.405.46-1.311 1.553-.377.484-1.282 1.631-.403.46-1.483 1.456-.434.433-.715.699-.354.458-.326.43-.194.336.072.27.296.36 1.248 1.251.46.405 1.4 1.078 1.307 1.301.46.405.393.193.27-.018.362-.292.433-.438.406-.459.578-.718.377-.487 1.304-1.714.376-.486 1.45-1.532.415-.299.383.031.397.3.875.87.317.333.098.237v.407l-.167 2.047-.047.575-.356 2.031-.046.577-.168 2.047-.045.574-.216 2.104.028.436.156.342.373.329 1.349 1.08.46.404 1.558 1.424 2.014 1.772.476.215.346-.158.133-.445.02-.544.02-1.822.015-.597.23-2.352.014-.597.206-2.325.043-.573.255-2.382.087-.33.308.119.447.241.553.127.523.1zM60.94 124.412l-.603 2.311-.157.587-.729 2.64-.145.502-.309.259-.424.086-.502-.146-1.442-1.089-2.017-1.326-.405-.36-.249-.39.16-.45.41-.416 2.247-1.599.507-.353 2.3-1.608.53-.112.415.137.354.372.173.434zm7.235-6.944l-1.45-1-2.499-1.645-1.515-.91-.544-.217-.448-.021-.39.247-1.444.935-.509.351-1.577 1.077-.562.362-1.654.978-.562.366-2.163 1.329-2.88 1.867-.488.323-2.047 1.226-.508.352-1.873 1.247-.51.351-2.015 1.245-.487.323-1.98 1.266-.508.353-1.104.699-.529.386-.234.214-.307.395.026.524.258.442.437.242 2.07 1.18.515.337 1.793 1.322.491.367.604.125.629-.187.53-.383 2.168-1.694.448-.259.363.011.456.208 1.472.972.504.284.48.317 1.899 1.297 2.362 1.643.512.34 1.839 1.395.362.283.245.253.015.468-.778 3.347-.073.455.023.383.335.403 2.068 1.18 1.44.95.461.347.692.549.45.295.457.211.458.072.456-.205.2-.513.416-2.023.463-2.587.07-.595.223-2.012.316-2.64.102-.576.414-2.023.101-.575.33-2.033.103-.574.308-2.002.103-.575.5-2.012.1-.576.33-2.033.105-.576.19-2.032.123-.606.373-1.544.116-.523-.183-.488zM93.482 147.999l.308-.825.226-.532.52-1.026.189-.545.084-.297.11-.454-.023-.344-.136-.266-.358-.234-.847-.36-1.387-.463-.546-.19-2.682-1.137-2.087-.968-.581-.204-1.243-.402-.92-.39-.379-.285-.116-.215.056-.227.128-.403 1.404-3.115.245-.477.246-.186.397.044.778.328 1.543.778 4.083 1.567 2.295.974.55.271.998.592.741.312.433.06.287-.087.21-.2.2-.374.259-.515.206-.58.287-.875.24-.566.521-1.028.225-.533.098-.332.13-.402-.052-.27-.168-.197-.373-.2-.569-.323-.551-.277-.868-.409-.562-.24-2.13-.776-.564-.24-2.036-.99-.58-.202-2.13-.778-.562-.24-2.002-.973-.566-.24-2.128-.776-.564-.24-1.297-.675-.778-.33-.381-.08-.257.018-.177.217-.214.409-.864 1.84-1.27 3.002-.867 1.84-1.268 2.998-.866 1.84-.238.567-.703 1.95-.24.564-.688 1.916-.274.55-.935 1.813-.274.548-.756 1.888-.206.579-.686 1.917-.131.402-.034.276.15.232.36.235 1.031.519 1.49.508.566.24 1.29.59.578.202.632.186.419.093.256-.017.196-.166.216-.408.287-.588.276-.55.294-.788.24-.566.978-1.916.24-.566.886-1.997.196-.46.232-.151.398.045.523.139.545.188 3.782 1.687.566.24 2.148.827.548.274 1.233.732.847.358.466.075.239-.068.225-.236.25-.395.275-.549zM113.695 153.764l-.369.225-.52.034-1.724-.532-2.347-.558-.503-.2-.366-.285-.005-.473.245-.531 1.566-2.266.358-.504 1.612-2.295.46-.281.438-.018.456.23.31.352.07.526.22 2.378.053.601.216 2.732.031.518zm9.39 8.509l-.138-.586-.475-1.963-.603-2.587-.1-.576-.298-2.04-.096-.574-.384-2.021-.1-.577-.39-1.985-.1-.574-.217-2.062-.1-.574-.381-2.02-.099-.576-.515-1.974-.09-.613-.173-1.58-.07-.527-.34-.397-.603-.261-1.709-.447-2.907-.698-1.729-.333-.587-.022-.424.134-.288.365-1.033 1.368-.357.504-1.118 1.547-.403.531-1.223 1.484-.403.531-1.575 1.987-2.073 2.735-.349.467-1.505 1.848-.355.503-1.34 1.807-.358.508-1.468 1.852-.348.469-1.43 1.863-.357.508-.797 1.03-.368.54-.145.282-.152.475.198.482.394.33.493.079 2.347.404.595.141 2.135.627.587.18.611-.09.526-.385.366-.542 1.464-2.33.33-.392.343-.115.504.04 1.712.41.568.096.56.135 2.226.569 2.776.744.595.144 2.202.684.437.143.317.155.172.435.41 3.406.084.456.155.35.448.265 2.345.403 1.678.4.549.172.84.28.519.124.505.043.454-.089.358-.349.014-.547-.3-2.042zM153.587 163.818l-.254-.171-.375-.103-.88-.063-1.575-.034-.615-.006-2.41-.132-.61-.044-2.42-.018-3.017-.216-.457-.07-.259-.172-.1-.2-.012-.385.185-2.559.176-1.948.3-.44 3.125-1.277.441-.235.17-.258.107-.416.079-.57.039-.572.006-.576.081-.61.195-1.138.039-.573-.158-.472-.29-.215-.345-.023-.505.08-.588.15-.587.188-.592.228-.465.044-.294-.214-.173-.242-.047-.427.07-2.068.082-.611.257-2.017.081-.609.108-.953.004-.575-.039-.578-.045-.427-.174-.244-.222-.128-.457-.071-.606-.083-.613-.044-1.497-.03-.61-.043-2.056-.261-.653-.008-.384.01-.24.099-.167.219-.148.45-.156 1.142-.017 1.305-.048.65-.252 2.479-.262 3.667-.022 2.458-.038.574-.193.527-.367.316-.511.195-.588.111-.625.187-.403.24-.136.298-.073.493-.229 1.597-.081.61-.101.877-.043.573.062.236.084.428.25.247.337.14.385-.01.435-.163.2-.139.557-.268.427-.047.17.32-.035.497-.18 1.447-.084.61-.166 1.83-.082.61-.148.987-.041.574.015.309.088.427.172.244.302.098 1.06.227.608.082 1.566.114 2.223.08.612.046 2.227.004.613.042 2.21.235 3.44.244 3.995.553.574.04h.537l.466-.083.322-.206.135-.26.105-.415.064-.879-.141-1.276.045-.613.297-1.476.045-.65-.04-.504zM200.282 154.74l-.23-1.208-.334-1.696-.149-2.377-.078-.607-.22-2.33-.077-.608-.415-2.343-.078-.607-.073-.878-.074-.57-.18-1.136-.098-.453-.338-.227-.51-.053-.575.035-.606.078-1.507.308-.606.08-1.962.094-.797.101-.48.177-.302.35-.086.551.122.95.318 1.582.115.602.377 2.349.078.608.22 2.328.077.609.187 2.372.078.608.447 2.298.04.615-.005 1.159-.04.622-.111.635-.193.603-.315.852-.323.504-.54.61-.454.367-.68.435-.55.224-.965.317-.608.077-1 .051-.587-.08-.877-.198-.533-.241-.69-.57-.438-.408-.493-.824-.3-.543-.333-.806-.194-.593-.194-.941-.12-.603-.257-2.325-.076-.609-.183-2.334-.076-.606-.26-2.323-.077-.611-.41-2.302-.08-.608-.11-1.492-.073-.57-.108-.53-.174-.48-.343-.263-.51-.052-.88.073-.574.036-1.25.198-.609.076-1.46.072-1.241.236-.481.178-.223.376-.039.62.048.653.081.648.232 1.206.45 3.533.184 2.334.078.61.37 2.309.078.61.18 2.33.117.605.242 1.281.158.637.196.632.257.816.225.551.22.515.303.54.342.575.378.53.409.49.735.91.4.414.578.583.471.365 1.095.709.618.308.615.269.885.274.643.188.317.075.635.112.345-.004.623.036 2.12-.04.575-.033.885-.037 1.748-.225 1.168-.225.556-.186.855-.264.55-.224.798-.412.546-.262.749-.482.461-.33.703-.553.451-.405.682-.705.441-.483.392-.552.319-.541.396-.822.2-.566.24-.845.121-.556.201-.837.082-.59.039-.893.034-.622.039-.932.002-.58-.073-.88zM223.764 153.685l-.082.263-.212.345-.349.308-.553.289-1.225.452-5.138 1.686-.5.073-.298-.068-.215-.176-.199-.382-.22-.733-.117-.645-.247-.808-.216-.574-.19-.624-.095-.45.05-.219.299-.21.625-.31.539-.206 2.164-.658.613-.227 1.626-.577.528-.12.276-.006.609.015.687.151.62.335.3.189.45.422.266.48.192.502.031.231.069.622zm-10.79-7.253l-.45.096-.34-.057-.212-.176-.197-.382-.215-.574-.126-.28-.143-.601-.158-.913-.036-.51.09-.228.187-.176.32-.138.344-.185.77-.235.574-.216.907-.316.553-.17 1.486-.25.33-.1.644-.119.267-.04.598-.021.242.004.625.212.474.377.254.441.191.625.045.548-.107.432-.167.372-.287.368-.374.356-.445.256-.806.243-1.269.31-.865.181-.624.19-.611.228zm18.341 4.147l-.142-.597-.14-.32-.261-.602-.336-.577-.365-.531-.236-.246-.434-.51-.498-.451-.786-.603-.584-.341-.563-.269-.443-.268-.197-.26.03-.291.204-.38.42-.73.243-.516.19-.819.063-.58-.037-.91-.078-.66-.155-.634-.216-.574-.434-.91-.29-.553-.352-.494-.377-.446-.618-.574-.399-.397-.705-.468-.488-.293-.78-.321-.58-.185-.807-.154-.627-.09-1.529-.015-.658.082-.645.115-2.171.501-.587.179-2.03.578-.586.18-1.957.675-3.246.79-3.967 1.327-.575.218-.49.23-.298.33-.005.524.26.842.444 1.067.217.574.738 1.901.144.598.482 1.977.142.598.63 1.93.175.591.67 1.921.177.586.448 1.987.49 1.615.243.927.169.55.19.502.207.54.317.907.214.574.483 1.978.19.622.052.304.18.59.13.56.196.502.194.38.241.13.326.017.535-.083.61-.103 1.405-.39.55-.166 1.994-.692.588-.177 2.086-.514 3.19-.973 1.995-.69.587-.178.858-.342.576-.215.81-.367 1.55-.833.493-.352.531-.363.472-.424.435-.413.389-.44.715-.939.28-.527.374-.874.184-.58.154-.807.065-.58.021-.85-.055-.582zM251.944 148.434l-.854-1.376-.269-.549-.783-1.922-.237-.567-1.055-1.784-1.377-2.782.003-.343.35-2.142.124-.615.317-2.123.105-.652.282-2.104.07-.635.13-2.16.088-.599.386-2.155.12-.616.673-4.865.05-.411-.031-.155-.208.017-.444.135-2.025.831-.548.274-1.942 1.088-.55.273-1.768.746-.394.153-.242.204-.103.478-.18 2.057-.034.618-.062 2.038-.089.598-.314 2.036-.088.602L241 134.1l-.123.358-.24.035-.39-.191-1.659-1.017-.549-.33-1.672-1.138-.497-.311-1.793-1.033-.497-.31-1.846-1.224-.187-.034-.396.152-2.04.883-.567.237-4.603 2.277-.137.24.05.189.258.26 1.81 1.152.512.344 1.83 1.105.512.345 4.206 2.45.511.344 1.811 1.153.546.328 1.865 1.003.547.328 1.744 1.19.358.12.22.276.782 1.921.305.533 1.057 1.785.305.535 2.092 4.222.237.308.19.037 4.084-1.852 2.266-1.121.276-.223.067-.205-.03-.326zM280.787 125.742l-.163-.826-.156-.55-.334-.796-.264-.566-.315-.574-.348-.553-.41-.508-.394-.425-.614-.597-.459-.38-.553-.313-.54-.225-.773-.295-.581-.153-.609-.128-1.44-.105-.583.043-.615.062-.592.091-.825.166-1.097.308-.558.21-.827.359-1.222.396-1.24.51-.597.283-1.105.695-.847.464-.533.24-.285.06-.51.08-.566-.064-.536-.23-.384-.336-.296-.544-.092-.597.021-.296.174-.548.122-.228.386-.512.465-.47.507-.41.814-.58.855-.518.52-.324.83-.355.62-.253.293-.118.581-.176.284-.064.603-.145.666-.052.425-.067.24-.126.184-.27.15-.578.032-.684.071-2.407-.017-.55-.1-.869-.058-.478-.22-.313-.483-.079-.607.009-.591.091-.84.08-.6.148-.624.116-.633.169-.64.223-.611.2-.622.251-1.194.57-.544.294-.264.092-.51.273-1.006.574-.499.356-.443.365-.457.42-.595.613-.849.793-.431.452-.63.636-.356.49-.668 1.043-.348.765-.283.53-.203.57-.184.6-.166.825-.067.565.017.553.094.594.179.909.176.578.163.494.24.535.475.796.322.52.776.954.582.62.43.402.685.497.52.335.617.268.57.205.841.06.606-.008.67-.054.604-.008 1.44-.228.624-.113.58-.18.865-.24.588-.232 1.07-.477 3.163-1.835.597-.287.619-.253.603-.145.317-.087.628.024.29.075.558.259.243.206.41.505.145.606v.327l-.088.536-.229.538-.335.523-.205.24-.452.418-1.878 1.529-.523.323-.739.482-.566.262-.61.2-.58.176-.963.17-.59.092-.648.086-1.487.025-.523-.004-.388.182-.209.432-.066.565-.038.544.05 1.192-.035.54-.295 1.436-.069.566-.013.244.042.392.19.196.45.105.587.098.598.045.872.036.598.045 1.485-.028.587-.038.592-.092.623-.118.592-.093.844-.27.578-.18.597-.282.515-.272.76-.45.461-.281.683-.489 1.432-1.16.697-.545.415-.343.642-.551.422-.397.692-.682.434-.45.712-.98.541-.76.28-.531.29-.584.203-.57.335-.85.131-.609.106-.643.046-.599-.026-.826z"/><g clip-path="url(#a)" transform="matrix(.77656 0 0 -.77656 -38.8 284.877)"><path d="M458.576 249.125L320.87 363.734a4.244 4.244 0 0 1-5.686-.237c-16.487-16.228-36.406-24.519-59.16-24.643-22.8.124-42.719 8.415-59.207 24.643a4.237 4.237 0 0 1-5.685.237L53.425 249.125a4.235 4.235 0 0 1-.696-5.781c3.033-4.099 4.937-6.401 9.57-11.151a4.239 4.239 0 1 1 6.071 5.918c-3.059 3.137-4.8 5.088-6.4 7.096l39.577 32.939c.096-.135.134-.292.248-.419.301-.334 7.518-8.313 20.964-18.688.003 0 .003-.003.005-.005a228.204 228.204 0 0 1 8.736-6.414 4.006 4.006 0 0 1 2.312-.728c1.276 0 2.53.601 3.315 1.724a4.044 4.044 0 0 1-.996 5.628 216.029 216.029 0 0 0-8.426 6.187c-.003.003-.005.003-.008.003-12.809 9.889-19.822 17.619-19.894 17.696-.04.045-.097.061-.14.105l42.896 35.7c.125-.177.191-.378.35-.538.418-.433 10.52-10.72 28.54-21.075a4.003 4.003 0 0 1 2.011-.538 4.04 4.04 0 0 1 2.017 7.543c-16.973 9.756-26.685 19.609-26.782 19.708 0 .003-.003.003-.006.003l5.564 4.631c.265-.375.586-.717.983-.996a575.485 575.485 0 0 0 6.764-4.808c11.772-8.448 25.113-18.025 43.324-24.041.002-.003.005-.006.01-.006a116.682 116.682 0 0 1 10.728-2.978c9.936-2.268 20.382-3.373 31.938-3.373 9.955 0 19.438.865 28.18 2.573h.003c7.307 1.432 14.102 3.417 20.778 6.069a4.041 4.041 0 0 1 2.265 5.246c-.822 2.076-3.176 3.081-5.246 2.266-6.21-2.467-12.54-4.313-19.352-5.649h-.003c-8.23-1.609-17.19-2.423-26.625-2.423-10.944 0-20.802 1.037-30.138 3.168a110.18 110.18 0 0 0-9.989 2.774c-.003 0-.005 0-.005.002-17.04 5.631-29.299 14.426-41.153 22.938a635.822 635.822 0 0 1-6.229 4.424l25.173 20.951c17.56-16.085 38.51-24.301 62.363-24.431 23.812.13 44.76 8.346 62.32 24.431l85.996-71.571c-.045-.044-.1-.06-.142-.105-.057-.06-5.724-6.311-16.15-14.737l-.004-.003a218.817 218.817 0 0 0-8.472-6.503c-.003 0-.006 0-.009-.002-12.61-9.202-26.159-17.068-40.272-23.38a210.67 210.67 0 0 0-10.529-4.377 4.042 4.042 0 1 1 2.898-7.545 219.27 219.27 0 0 1 10.935 4.545c14.624 6.541 28.665 14.694 41.733 24.227.002.002.002.005.005.005a217.035 217.035 0 0 1 8.79 6.745h.003c10.975 8.871 16.836 15.351 17.081 15.622.113.127.155.284.248.419l39.558-32.923c-3.725-4.63-8.387-9.638-13.893-14.961l-.254-.091-.326-.228-2.486-2.402-2.316-1.928-.592-.524-3.387-3.452-1.038-.914-.398-.314-.503-.249-.342.158-.176.501-.368 2.714-.128.742-.434 2.719-.602 3.427-.093.773-.296 2.711-.094.775-.576 2.656-.166.781-.293 2.709-.162.776-.425 3.456-.364 2.712-.073.528-.328.438-.257.368-.593.59-.23.262-.547.24-.546-.35-1.959-1.808-2.749-2.18-.593-.527-2.49-2.473-2.125-1.692-.59-.524-1.963-1.808-.59-.524-2.059-1.767-.594-.524-4.479-4.245-.447-.464.143-.533 2.074-2.185.524-.594 1.15-1.217.597-.595.26-.295.54-.314.535.213 1.286 1.008 1.366 1.215 1.97 1.945.59.524 2.03 1.872.594.524 2.197 1.692.574.242.36-.406.422-3.52.253-2.813.424-3.45.166-.781.395-2.749.166-.78.502-2.722.163-.776.295-2.712.166-.78.434-2.716.124-.812.294-2.709.146-.466.33-.366 1.384-1.412.467-.377.464.145.555.494.593.592.857.897.594.594 2.14 1.901.624.488 2.24 1.789.625.489 2.105 1.939.56.561.423.416a304.732 304.732 0 0 1 3.573 3.176l1.53 1.185s18.025 18.331 22.38 24.213a4.235 4.235 0 0 1-.695 5.781"/><path d="M244.306 220.834a201.093 201.093 0 0 0-35.316 5.252 4.034 4.034 0 0 1-4.874-2.981 4.04 4.04 0 0 1 2.981-4.875 209.134 209.134 0 0 1 36.74-5.466 4.042 4.042 0 0 1 .469 8.07M163.181 269.48c3.61-2.28 7.272-4.41 10.885-6.332a4.042 4.042 0 0 1 3.792 7.138 160.274 160.274 0 0 0-10.36 6.027 4.043 4.043 0 0 1-5.575-1.258 4.04 4.04 0 0 1 1.258-5.575M194.559 289.641c19.792-8.793 40.463-13.253 61.44-13.253a4.038 4.038 0 0 1 4.04 4.041 4.037 4.037 0 0 1-4.04 4.04c-19.837 0-39.408 4.226-58.161 12.558a4.041 4.041 0 0 1-3.279-7.386M205.601 334.418a4.044 4.044 0 0 1-5.713-.06 4.037 4.037 0 0 1 .061-5.713c2.748-2.691 12.938-11.47 28.683-11.47a4.039 4.039 0 0 1 4.041 4.04 4.038 4.038 0 0 1-4.04 4.04c-10.08 0-18.506 4.734-23.032 9.164M278.433 249.53c-.187 2.223-2.173 3.832-4.366 3.686a216.678 216.678 0 0 0-18.067-.734c-7.56 0-14.931.37-21.908 1.095-2.213.255-4.21-1.38-4.438-3.599a4.04 4.04 0 0 1 3.599-4.438c7.256-.756 14.909-1.139 22.747-1.139 6.434 0 12.743.256 18.746.762a4.04 4.04 0 0 1 3.687 4.366M299.698 283.18c.402 0 .814.064 1.22.19a160.085 160.085 0 0 1 15 5.603 4.041 4.041 0 0 1 2.11 5.31c-.883 2.046-3.262 3.003-5.312 2.109a150.86 150.86 0 0 0-14.239-5.315 4.044 4.044 0 0 1 1.221-7.896"/></g></symbol></svg>